<?xml version="1.0" encoding="UTF-8" standalone="no"?>
<!-- Created with Inkscape (http://www.inkscape.org/) -->

<svg
   width="104.72727mm"
   height="104.72727mm"
   viewBox="0 0 104.72727 104.72727"
   version="1.1"
   id="svg1"
   xmlns="http://www.w3.org/2000/svg"
   xmlns:svg="http://www.w3.org/2000/svg">
  <defs
     id="defs1" />
  <g
     id="layer1"
     transform="translate(-56.050762,-71.50909)">
    <path
       id="path1"
       style="fill:#000000;stroke-width:0.264583"
       d="M 108.41449 71.50909 A 52.363636 52.363636 0 0 0 56.050762 123.87282 A 52.363636 52.363636 0 0 0 108.41449 176.23655 A 52.363636 52.363636 0 0 0 160.77822 123.87282 A 52.363636 52.363636 0 0 0 108.41449 71.50909 z M 130.74284 93.488627 C 132.13815 93.488627 133.29239 93.932406 134.20568 94.820329 C 135.14434 95.708251 135.61335 96.811522 135.61335 98.130721 C 135.61335 100.03341 135.14434 103.48378 134.20568 108.48151 C 133.14017 114.0881 132.23923 121.28023 131.50352 130.05797 C 130.79318 138.83572 130.43847 144.67076 130.43847 147.56285 C 130.43847 148.93278 129.77846 150.28986 128.45926 151.63443 C 127.14006 152.979 125.9606 153.65136 124.92046 153.65136 C 123.80422 153.65136 122.72617 153.23281 121.68603 152.39563 C 120.64589 151.55844 120.1254 150.4804 120.1254 149.1612 C 120.1254 148.29864 120.46828 145.34303 121.15325 140.29456 C 121.83822 135.27145 122.18058 131.82109 122.18058 129.94377 C 122.18058 128.72604 121.93964 128.11752 121.45762 128.11752 C 120.26527 128.11752 117.90582 128.25704 114.3795 128.5361 C 110.82781 128.84053 108.40504 128.9924 107.11121 128.9924 C 106.17255 128.9924 103.71168 129.13192 99.728716 129.41098 C 95.77112 129.69004 93.690707 129.9315 93.487753 130.13445 C 92.828154 131.50439 92.346277 135.28424 92.041847 141.47433 C 91.915001 145.10212 91.407898 148.13342 90.519976 150.56886 C 89.657423 153.00431 88.515537 154.22239 87.094862 154.22239 C 85.496602 154.22239 84.151875 153.71477 83.061 152.7 C 81.995493 151.7106 81.463164 150.26445 81.463164 148.36176 C 81.463164 146.6874 81.830749 144.37892 82.566456 141.43609 C 84.215454 134.78936 86.042058 120.87463 88.046225 99.691349 C 88.173071 98.828796 88.680691 98.004044 89.568613 97.217598 C 90.481904 96.405784 91.433303 96.000102 92.422702 96.000102 C 95.771437 96.000102 97.445651 98.079998 97.445651 102.24055 C 97.445651 104.11787 97.065195 107.09923 96.304119 111.18367 C 95.416197 115.87697 94.971901 119.3016 94.971901 121.45798 C 95.174854 121.71167 96.088156 121.83832 97.711785 121.83832 C 101.26347 121.83832 106.2995 121.55928 112.81939 121.00116 C 119.33928 120.44304 122.84009 119.72022 123.32211 118.8323 C 123.82949 117.94438 124.34947 115.38209 124.88222 111.14543 C 125.44034 106.8834 125.71938 102.35499 125.71938 97.560213 C 125.71938 96.849875 126.25222 95.999897 127.31773 95.010498 C 128.38324 93.99573 129.52512 93.488627 130.74284 93.488627 z " />
  </g>
</svg>
